<svg id="Layer_1" enable-background="new 0 0 128 128" height="128" viewBox="0 0 128 128" width="128" xmlns="http://www.w3.org/2000/svg" xmlns:xlink="http://www.w3.org/1999/xlink"><linearGradient id="SVGID_1_" gradientTransform="matrix(1 0 0 -1 0 130)" gradientUnits="userSpaceOnUse" x1="89.089" x2="27.43" y1="38.229" y2="99.888"><stop offset="0" stop-color="#00acf3"/><stop offset="1" stop-color="#42e893"/></linearGradient><path d="m45.1 39.1c0-1 .8-1.7 1.7-1.8h.9c1 0 1.8.8 1.8 1.8s-.8 1.8-1.8 1.8h-.9c-.9 0-1.7-.8-1.7-1.8zm-15 48.4-7.5 8v-54.6h17.4c1 0 1.8-.8 1.8-1.8s-.8-1.7-1.8-1.7h-19.1c-1 0-1.7.8-1.8 1.7v60.8c0 1.8 2.1 2.2 3 1.2 2.6-2.8 10.5-11.3 10.5-11.3.7-.7.6-1.8-.1-2.5s-1.7-.5-2.4.2zm59.6-16.9c-1 0-1.7.8-1.8 1.8v14.6h-48.9c-1 0-1.8.8-1.8 1.8s.8 1.8 1.8 1.8h50.7c1 0 1.7-.8 1.8-1.7v-16.5c-.1-1-.8-1.8-1.8-1.8zm19.1-35.5c-.7-4.8-5.2-8.2-10-7.5-2.3.3-4.4 1.6-5.8 3.4l-4.8 6.4h-33.4c-1 0-1.8.8-1.8 1.8s.8 1.8 1.8 1.8h30.8l-15.7 20.6c-.6.8-.4 1.9.3 2.5l9 6.8-8.2 3.9.9-5.4c.2-1-.5-1.9-1.4-2s-1.9.5-2 1.4c0 0-1.1 6.5-1.4 8.7-.3 1.8 1.5 2.3 2.5 1.9 3.4-1.6 13.8-6.5 13.8-6.5s.5-.3.7-.5l12-15.9c.6-.8.4-1.9-.3-2.5-.8-.6-1.9-.4-2.5.3l-11 14.5-8.6-6.4 22-29.2c1.8-2.4 5.1-2.8 7.5-1.1 2.4 1.8 2.8 5.1 1.1 7.5l-2.9 3.8c-.6.8-.4 1.9.3 2.5.8.6 1.9.4 2.5-.3l2.9-3.8c1.4-2 2-4.4 1.7-6.7zm-8.7 13c-.8-.6-1.9-.4-2.4.3l-.6.8c-.6.8-.4 1.9.3 2.5.8.6 1.9.4 2.5-.3l.6-.8c.5-.8.3-1.9-.4-2.5zm-31.3.7c0-1-.8-1.8-1.8-1.8h-35.5c-1 0-1.8.8-1.8 1.8s.8 1.8 1.8 1.8h35.5c1 0 1.8-.8 1.8-1.8zm-4.8 9.9c0-1-.8-1.8-1.8-1.8h-30.7c-1 0-1.8.8-1.8 1.8s.8 1.8 1.8 1.8h30.7c1-.1 1.8-.9 1.8-1.8zm-2.1 9.8c0-1-.8-1.7-1.7-1.8h-28.7c-1 0-1.8.8-1.8 1.8s.8 1.8 1.8 1.8h28.6c1 0 1.8-.8 1.8-1.8zm-30.4 8.1c-1 0-1.8.8-1.8 1.8s.8 1.8 1.8 1.8h25.6c1 0 1.8-.8 1.8-1.8s-.8-1.8-1.8-1.8z" fill="url(#SVGID_1_)"/></svg>