<svg height="512" viewBox="0 0 128 128" width="512" xmlns="http://www.w3.org/2000/svg" xmlns:xlink="http://www.w3.org/1999/xlink"><linearGradient id="linear-gradient" gradientUnits="userSpaceOnUse" x1="114.104" x2="13.898" y1="140.069" y2="39.863"><stop offset="0" stop-color="#4f67d2"/><stop offset="1" stop-color="#ff656f"/></linearGradient><g id="Layer_2" data-name="Layer 2"><path d="m52.516 24.761a11.484 11.484 0 1 0 11.484-11.485 11.5 11.5 0 0 0 -11.484 11.485zm19.468 0a7.984 7.984 0 1 1 -7.984-7.985 7.993 7.993 0 0 1 7.984 7.985zm-29.757 56.428a1.75 1.75 0 0 1 0 2.475l-1.809 1.81a1.75 1.75 0 0 1 -2.475-2.474l1.809-1.81a1.75 1.75 0 0 1 2.475-.001zm82.366 14.525c-.011-.033-.022-.066-.036-.1a64.037 64.037 0 0 0 -50.372-42.48 74.365 74.365 0 0 0 2.457-7.092 24.786 24.786 0 0 0 12.118-21.281 1.75 1.75 0 0 0 -3.5 0 21.284 21.284 0 0 1 -10.96 18.592 1.753 1.753 0 0 0 -.839 1.07c-2.306 8.46-7.046 17.367-9.461 21.597-2.415-4.229-7.155-13.137-9.461-21.6a1.753 1.753 0 0 0 -.839-1.07 21.259 21.259 0 1 1 29.57-27.584 1.75 1.75 0 0 0 3.171-1.482 24.762 24.762 0 1 0 -35.083 31.76 74.365 74.365 0 0 0 2.457 7.092 63.863 63.863 0 0 0 -6.349 1.339c-.017 0-.034 0-.051.006s-.048.018-.073.024a64.07 64.07 0 0 0 -47.342 61.795 64.735 64.735 0 0 0 .824 10.231 1.751 1.751 0 0 0 1.728 1.469h122.9a1.751 1.751 0 0 0 1.728-1.473 64.735 64.735 0 0 0 .82-10.227 63.747 63.747 0 0 0 -3.407-20.585zm-68.34-36.983-6.275-.815-.1-.43q2.624-.626 5.337-1.021c.346.773.692 1.535 1.038 2.266zm-52.736 58.552.355.232a1.772 1.772 0 0 0 1.33.244l3.009-.659 8.313 6.651a1.766 1.766 0 0 0 1.356.364l10.825-1.644 1.586 2.028h-26.23a61.139 61.139 0 0 1 -.544-7.216zm60.266 7.217-8.313-8.312a1.75 1.75 0 0 0 -1.237-.513h-11.038l-8.195-8.195v-17.313a1.75 1.75 0 0 0 -3.5 0v18.038a1.75 1.75 0 0 0 .513 1.237l9.22 9.22a1.75 1.75 0 0 0 1.237.513h11.037l5.326 5.325h-24.1l-3.9-4.99a1.751 1.751 0 0 0 -1.641-.652l-11.079 1.682-8.367-6.694a1.759 1.759 0 0 0 -1.467-.344l-3.108.681-1.584-1.033a60.57 60.57 0 0 1 42.913-54.75l.331 1.478a1.75 1.75 0 0 0 1.482 1.354l9.792 1.268c1.907 3.721 3.551 6.481 4.164 7.487.706 1.157 2.318 1.827 3.214.4.143-.228 1.691-2.719 3.664-6.453l8.538 1.109 15.581 10.057-8.987 4.118-19.707-2.168-5.923-5.924a1.748 1.748 0 0 0 -1.879-.391l-10.491 4.133a1.75 1.75 0 1 0 1.283 3.256l9.423-3.712 5.547 5.547a1.746 1.746 0 0 0 1.045.5l20.8 2.292a1.805 1.805 0 0 0 .192.011 1.745 1.745 0 0 0 .731-.162l12.329-5.648a1.749 1.749 0 0 0 .22-3.061l-18.594-12a1.741 1.741 0 0 0 -.724-.266l-7.692-1c.643-1.308 1.3-2.7 1.945-4.161a60.488 60.488 0 0 1 46.4 35.066l-3.794-2.643a1.69 1.69 0 0 0 -.176-.107l-10.024-5.351a1.747 1.747 0 0 0 -1.528-.059l-12.495 5.491a1.75 1.75 0 0 0 -.246 3.072l12.409 8.022 1.813 10.22-8.913 8.912a1.75 1.75 0 0 0 -.513 1.237v4.176zm60.156 0h-24.721v-3.45l9.045-9.044a1.751 1.751 0 0 0 .486-1.543l-2.106-11.868a1.75 1.75 0 0 0 -.773-1.164l-10.32-6.672 8.741-3.842 9.18 4.9 7.992 5.567a60.274 60.274 0 0 1 3.037 18.916 60.963 60.963 0 0 1 -.561 8.2z" fill="url(#linear-gradient)"/></g></svg>