<svg height="468pt" viewBox="0 -95 468.23947 468" width="468pt" xmlns="http://www.w3.org/2000/svg" xmlns:xlink="http://www.w3.org/1999/xlink"><linearGradient id="linear0" gradientUnits="userSpaceOnUse" x1="102.939378" x2="365.283378" y1="90.320365" y2="352.668365"><stop offset="0" stop-color="#ffca6c"/><stop offset="1" stop-color="#ff654f"/></linearGradient><path d="m327.042969 268.363281c.707031 3.121094-.515625 6.359375-3.101563 8.238281-2.585937 1.878907-6.042968 2.035157-8.789062.402344l-81.039063-48.125-81.046875 48.121094c-2.746094 1.632812-6.203125 1.476562-8.789062-.402344-2.585938-1.878906-3.808594-5.117187-3.101563-8.238281l20.726563-91.945313-70.800782-62.207031c-2.398437-2.109375-3.3125-5.441406-2.324218-8.480469.984375-3.039062 3.6875-5.199218 6.871094-5.496093l93.835937-8.707031 37.277344-86.566407c1.265625-2.9375 4.152343-4.835937 7.351562-4.835937 3.195313 0 6.082031 1.898437 7.347657 4.835937l15.492187 35.972657c1.746094 4.058593-.128906 8.761718-4.1875 10.511718-4.054687 1.746094-8.761719-.125-10.511719-4.183594l-8.140625-18.90625-31.8125 73.867188c-1.160156 2.691406-3.695312 4.53125-6.609375 4.800781l-80.078125 7.429688 60.417969 53.074219c2.199219 1.933593 3.167969 4.914062 2.523438 7.769531l-17.683594 78.46875 69.152344-41.066407c2.519531-1.496093 5.652343-1.496093 8.171874 0l69.15625 41.066407-17.683593-78.460938c-.644531-2.855469.324219-5.835937 2.523437-7.769531l60.429688-53.078125-80.089844-7.433594c-2.914062-.269531-5.449219-2.109375-6.609375-4.800781l-10.839844-25.167969c-1.746093-4.054687.128907-8.761719 4.183594-10.511719 4.058594-1.746093 8.765625.128907 10.515625 4.183594l8.957031 20.800782 93.847657 8.703124c3.183593.296876 5.886718 2.457032 6.875 5.496094.984374 3.039063.070312 6.371094-2.328126 8.480469l-70.800781 62.207031zm-194.132813-79.195312-39.707031-3.679688-15.769531-36.625c-1.261719-2.933593-4.152344-4.835937-7.347656-4.835937-3.195313 0-6.082032 1.902344-7.347657 4.835937l-15.78125 36.621094-39.710937 3.679687c-3.171875.300782-5.867188 2.457032-6.851563 5.488282-.988281 3.03125-.082031 6.359375 2.308594 8.472656l14.453125 12.695312c2.121094 2.023438 5.183594 2.722657 7.976562 1.824219 2.792969-.902343 4.867188-3.257812 5.40625-6.144531.539063-2.882812-.542968-5.828125-2.820312-7.679688l-.5-.4375 25.941406-2.398437c2.914063-.269531 5.449219-2.113281 6.605469-4.800781l10.304687-23.921875 10.300782 23.921875c1.160156 2.6875 3.691406 4.53125 6.609375 4.800781l25.933593 2.398437-19.570312 17.203126c-2.199219 1.929687-3.167969 4.910156-2.523438 7.765624l5.726563 25.414063-22.398437-13.300781c-2.519532-1.496094-5.65625-1.496094-8.171876 0l-22.402343 13.300781 5.738281-25.421875c.808594-4.238281-1.890625-8.355469-6.101562-9.304688-4.207032-.949218-8.414063 1.613282-9.5 5.789063l-9.8125 43.535156c-.703126 3.117188.519531 6.355469 3.105468 8.234375 2.585938 1.878906 6.039063 2.035156 8.789063.402344l34.28125-20.359375 34.285156 20.359375c2.746094 1.632812 6.203125 1.476562 8.792969-.402344 2.585937-1.878906 3.804687-5.117187 3.097656-8.238281l-8.765625-38.898437 29.960937-26.335938c2.382813-2.109375 3.292969-5.433594 2.308594-8.464844-.984375-3.027344-3.671875-5.1875-6.84375-5.492187zm334.945313 5.496093c-.988281-3.039062-3.6875-5.199218-6.871094-5.496093l-39.710937-3.679688-15.769532-36.625c-1.265625-2.933593-4.152344-4.835937-7.347656-4.835937s-6.085938 1.902344-7.347656 4.835937l-15.78125 36.621094-39.707032 3.679687c-3.175781.300782-5.867187 2.457032-6.851562 5.492188-.988281 3.03125-.078125 6.359375 2.3125 8.46875l15.855469 13.925781c2.121093 2.027344 5.183593 2.726563 7.976562 1.824219 2.789063-.902344 4.867188-3.257812 5.40625-6.140625.539063-2.882813-.542969-5.832031-2.820312-7.683594l-1.902344-1.671875 25.9375-2.398437c2.914063-.269531 5.449219-2.113281 6.609375-4.800781l10.300781-23.921876 10.304688 23.921876c1.15625 2.6875 3.691406 4.53125 6.605469 4.800781l25.9375 2.398437-19.574219 17.203125c-2.199219 1.929688-3.167969 4.910157-2.523438 7.765625l5.730469 25.414063-22.402344-13.300781c-2.519531-1.496094-5.652344-1.496094-8.171875 0l-22.398437 13.300781 5.726562-25.414063c.820313-4.242187-1.878906-8.367187-6.09375-9.320312-4.214844-.949219-8.421875 1.617187-9.503906 5.800781l-9.808594 43.535156c-.707031 3.121094.511719 6.359375 3.097656 8.238281 2.589844 1.878907 6.046876 2.035157 8.792969.402344l34.285157-20.359375 34.28125 20.359375c2.75 1.632813 6.203124 1.476563 8.789062-.402344 2.585938-1.878906 3.808594-5.117187 3.105469-8.234374l-8.765625-38.902344 29.960937-26.320313c2.402344-2.109375 3.316407-5.445312 2.328125-8.484375zm0 0" fill="url(#linear0)"/></svg>