<svg id="Layer_1" enable-background="new 0 0 128 128" viewBox="0 0 128 128" xmlns="http://www.w3.org/2000/svg" xmlns:xlink="http://www.w3.org/1999/xlink"><linearGradient id="SVGID_1_" gradientTransform="matrix(1 0 0 -1 0 130)" gradientUnits="userSpaceOnUse" x1="72.342" x2="45.849" y1="47.849" y2="74.342"><stop offset="0" stop-color="#64e1dc"/><stop offset="1" stop-color="#ffda2d"/></linearGradient><path d="m67.6 84.5c.7.7.7 1.8 0 2.5l-2.3 2.3c-.7.7-1.8.7-2.5 0s-.7-1.8 0-2.5l2.3-2.3c.7-.7 1.8-.7 2.5 0zm58.3-58.4c.7.7.7 1.8 0 2.5l-50.9 50.9c-.7.7-1.8.7-2.5 0s-.7-1.8 0-2.4l43.8-43.8-4.5-4.5-80.7 80.7 2.2 6.8 22-22c.7-.7 1.8-.7 2.5 0s.7 1.8 0 2.5c0 0-18 18-24 24-.1.1-.5.4-.9.5-7.7 1.7-30.8 6.8-30.8 6.8-.1 0-.2 0-.4 0-1 0-1.8-.8-1.7-1.8 0-.1 0-.3 0-.4 0 0 5.8-26.5 6.8-30.8.1-.3.3-.7.5-.9 18.4-18.4 92.1-92.1 92.1-92.1 2.8-2.8 7.2-2.8 10 0l16.5 16.5c.7.7.7 1.8 0 2.5s-1.8.7-2.5 0l-16.5-16.6c-1.4-1.4-3.6-1.4-5 0l-4.7 4.7 21.5 21.5 4.7-4.7c.7-.6 1.8-.6 2.5.1zm-31.1-14.4-83 83 6.8 2.2 80.7-80.7zm-74.6 97.5c-.7-.1-1.3-.7-1.4-1.4l-1.3-7.6-7.7-2.5-2.7 12.1 11 11 12.1-2.7-2.5-7.7zm-16.2 14.8 10-2.2-7.8-7.8zm105.4-97.7-7.7-7.7-80.8 80.8 1.1 6.6 6.5 1.1z" fill="url(#SVGID_1_)"/></svg>